<svg xmlns="http://www.w3.org/2000/svg" xmlns:xlink="http://www.w3.org/1999/xlink" version="1.0" x="0px" y="0px" viewBox="5.0 -10.0 100.0 135.0" enable-background="new 0 0 100 100" xml:space="preserve" height="100px" width="100px">
<g id="Layer_1">
</g>
<g id="Ebene_2">
	<g>
		<path d="M62.2,27.1c0.1-0.1,0.1-0.2,0.1-0.4L61,17.2l4.1,0.4c0.3,0,0.5-0.2,0.5-0.5c0-0.3-0.2-0.5-0.5-0.5l-4.7-0.4    c-0.2,0-0.3,0-0.4,0.2c-0.1,0.1-0.2,0.3-0.1,0.4l1.4,9.7l-3.1,0.2c-0.3,0-0.5,0.3-0.5,0.5c0,0.3,0.2,0.5,0.5,0.5c0,0,0,0,0,0    l3.6-0.2C62,27.3,62.1,27.2,62.2,27.1z"/>
		<path d="M93.5,57.3c-0.6-1.1-1.6-2.2-3.6-2.1c0.5-2.5,0.2-5.8-1-9.6c-1.5-5-4.3-10.3-7.2-13.8c-3.9-4.7-6.4-4.1-7.6-3.4    c-1,0.6-1.5,1.5-1.8,2.5L66.6,30c-0.2,0-0.3,0-0.5,0c-1.3,0.5-1.8,1.3-2,1.9c-0.4,1.5,0.8,2.9,0.9,3.1c0.2,0.2,0.4,0.3,0.6,0.3    l1.7,0.3c-0.4,0.4-0.9,0.7-1.7,0.8c-0.7,0-1.3-0.3-1.8-0.8c-0.8-1-1.1-2.9-0.6-4.5c0.5-1.9,2.3-2,2.7-2c0.1,0,0.1,0,0.1,0    c0.5,0.1,1.3,0.5,1.6,0.8c0.2,0.2,0.5,0.3,0.7,0.1c0.2-0.2,0.3-0.5,0.1-0.7c-0.3-0.4-0.8-0.7-1.3-0.9c-0.1,0-0.1-0.1-0.2-0.1    c0.9-2.3,1.6-4.9,1.6-7.5c0-9.5-2.9-14.4-8.9-15c-2.5-0.3-5.2,0.7-7.4,2.7c-2.7,2.4-4.4,6-4.8,10.1c-0.1,0-0.2,0-0.3,0    c0,0,0,0,0,0c0,0,0,0,0,0c-0.3,0-1.8,0.3-2.4,1.1c-0.2,0.2-0.1,0.5,0.1,0.7c0.2,0.2,0.5,0.1,0.7-0.1c0.2-0.3,1.1-0.6,1.7-0.6    c0.1,0,2.3-0.2,2.9,2c0.5,1.6,0.2,3.4-0.6,4.5c-0.5,0.6-1.1,0.9-1.8,0.8c-0.7,0-1.3-0.3-1.7-0.8l1.7-0.3c0.2,0,0.4-0.2,0.6-0.3    c0.1-0.2,1.3-1.6,0.9-3.1c-0.2-0.6-0.6-1.4-2-1.9c-0.2-0.1-0.3-0.1-0.5,0l-4.2,0.6c0-0.2,0-0.3-0.1-0.5c-0.2-0.6-0.6-1-1.2-1.2    c-1.6-0.6-3.5-0.3-5.6,0.8c-2.1,1.1-4.4,3.1-6.6,5.5c-11.8,4.7-21.6,17.7-23,26.1C4.9,59,9,63.2,13.4,67.6c5.8,6,11.9,12.1,6,26.5    c-0.1,0.3,0,0.5,0.3,0.7c0.1,0,0.1,0,0.2,0c0.2,0,0.4-0.1,0.5-0.3c6.1-14.9-0.5-21.6-6.2-27.5c-4.2-4.2-8.1-8.2-7-14.9    c1.3-7.7,10.1-19.3,20.4-24.5c-4.9,5.9-9.1,13.5-10.2,17.8c-1,3.9-0.4,7,1.5,9.2c4.8,5.4,17.1,3.9,22.9,3.1    c0.8-0.1,1.6-0.2,2.1-0.2c0.3,2.8,0.5,13.2,0.7,21c0.2,8.6,0.4,13.9,0.5,14.7c0.1,0.5,0.5,0.8,1,0.8c0.1,0,0.1,0,0.2,0    c0.5-0.1,0.9-0.6,0.8-1.2c-0.1-0.8-0.3-7.7-0.5-14.4c-0.5-20.8-0.7-22-1.1-22.5c-0.5-0.6-1-0.6-4-0.2c-5.5,0.7-17.1,2.2-21.2-2.5    c-1.5-1.7-1.9-4.1-1.1-7.4C20.5,41,26.1,31.7,31.7,26c0.9-0.3,1.8-0.5,2.7-0.6c0.2,0.8,0.7,1.5,1.4,2.1c0.1,0.1,0.3,0.2,0.5,0.2    c0.2,0.5,0.4,1,0.6,1.6c-0.5,0.8-1,1.6-1.4,2.3c-3.4,5.5-6.7,10.7-6.5,13.7c0,0.3,0.2,0.6,0.4,0.8c2.8,2,9.1,2,12.6-0.9    c0.9-0.8,2.3-1.5,3.8-2.2c1.9,1.8,4,3.2,6.3,4c1.5,0.5,3,0.8,4.5,0.8c3.5,0,7.1-1.4,10.8-4.1c4.3,5.5,5.7,17.4,7.3,29.9    c0.7,5.7,1.4,11.7,2.5,17.1c0.1,0.5,0.6,0.9,1.2,0.8c0.5-0.1,0.9-0.6,0.8-1.2c-1-5.4-1.7-11.3-2.4-17c-0.7-5.5-1.3-10.8-2.2-15.6    c3.7,1.8,6.8,2.7,9.2,2.7c2,0,3.6-0.6,4.7-1.8c0.6-0.6,1-1.3,1.3-2.2c1.3-0.3,2.3,0.2,3,1.5c3.4,6.6-3.7,31-10.3,35.2    c-0.2,0.1-0.3,0.5-0.1,0.7c0.1,0.1,0.3,0.2,0.4,0.2c0.1,0,0.2,0,0.3-0.1C89.9,89.3,97.2,64.4,93.5,57.3z M34.3,24.3    c-0.4,0.1-0.7,0.1-1.1,0.2c0.4-0.4,0.9-0.8,1.3-1.1C34.4,23.7,34.4,24,34.3,24.3z M66.4,33.4c-0.2-0.3-0.4-0.7-0.3-1    c0.1-0.2,0.3-0.3,0.5-0.4L77,33.6c0.1,0.2,0.2,0.4,0.2,0.7c0,0.3-0.2,0.6-0.5,0.9l-7.4-1.2c0-0.2,0.1-0.4,0.1-0.5    c0-0.3-0.1-0.5-0.4-0.6c-0.3,0-0.5,0.1-0.6,0.4c0,0,0,0.2-0.1,0.5L66.4,33.4z M40.7,21.3c0,0,0,0.1,0,0.1l-4,0.6    C38.3,21.2,39.6,20.9,40.7,21.3z M36.6,25.2c0-0.1,0-0.2,0-0.3c0,0,0,0,0,0c0,0,0,0,0-0.1c0,0.2,0,0.4,0,0.5    C36.6,25.2,36.6,25.2,36.6,25.2z M36.6,24.3c0-0.1-0.1-0.1-0.2-0.2c0,0,0-0.1,0-0.1l10.4-1.6c0.2,0.1,0.4,0.2,0.5,0.4    c0.1,0.2-0.1,0.7-0.3,1l-9.4,1.6c0-0.3,0-0.7-0.1-1.1c-0.1-0.3-0.3-0.4-0.6-0.4C36.8,24,36.7,24.2,36.6,24.3z M38,27.4    c-0.1,0.2-0.3,0.5-0.4,0.7c-0.1-0.2-0.2-0.4-0.2-0.6L38,27.4z M40.7,43.6c-2.7,2.3-7.5,2.2-9.7,1.1c0.3-2.6,3.4-7.6,6.2-12.1    c0.3-0.4,0.5-0.8,0.7-1.2c1.5,3.1,3.6,6.9,6.4,10C42.9,42.1,41.7,42.8,40.7,43.6z M45.3,41c-3-3.3-5.3-7.4-6.7-10.6    c0.8-1.3,1.4-2.4,2-3.4l4.4-0.7c0.6,0.8,1.5,1.5,2.7,1.6c0,0,0.1,0,0.1,0c0.1,0,0.2,0,0.2,0c0.1,0,0.3,0,0.6,0c0,0,0,0,0,0    c1.6,4.2,4,7.5,4.7,8.4c0,0.8,0,1.7,0,2.3C51.2,39,48.1,39.8,45.3,41z M52.8,46.1c-2.2-0.7-4.2-2-6-3.6c2.7-1.1,5.7-1.9,7.6-2.1    c0.4,0,0.7-0.3,0.8-0.6c0.1-0.2,0.2-0.6,0.2-3.9c0-0.2-0.1-0.4-0.2-0.6c0-0.1-2.8-3.5-4.5-8c0.2-0.1,0.3-0.2,0.5-0.3    c1.3-0.9,1.9-2.3,1.7-4.3c-0.1-1-0.3-3.6-3.4-4.1c0.4-3.5,1.9-6.6,4.1-8.7c1.8-1.6,3.9-2.4,5.9-2.2c3,0.3,7.1,2,7.1,13    c0,2.4-0.7,4.9-1.6,7.2c-4,0.1-4.3,3-4.4,4.3c-0.1,1.3,0.1,2.4,0.6,3.3c0.4,4,1,4.6,1.1,4.8c0.1,0.1,0.3,0.2,0.5,0.3    c1.5,0.3,2.9,1.1,4,2.3C61.9,46.4,57.2,47.5,52.8,46.1z M63.7,38.7c-0.1-0.3-0.2-0.9-0.3-1.5c0.3,0.1,0.6,0.1,1,0.1    c0.2,0,0.4,0,0.6-0.1c0.2,0,0.4,0.1,0.6,0.1c0,0,0.1,0,0.1,0c1.3,0,2.1-0.7,2.7-1.6l5,0.8c0,0,0,0,0,0c-1.7,1.9-3.4,3.6-5.1,5    C67.1,40.2,65.5,39.2,63.7,38.7z M73.9,37.7c1,2.1,2.2,4.2,3.4,6.2c1,1.6,2.2,3.7,2.5,4.7c-1-0.3-3.7-1.6-10.8-6.2    C70.7,41.1,72.3,39.5,73.9,37.7z M74,55.2c-0.7-3.4-1.6-6.5-2.8-9c8,5.1,9.4,4.9,10.3,4.1c1.2-1.2-0.1-3.4-2.4-7.4    c-1-1.7-2.2-3.8-3.2-5.8l1,0.2c0.1,0,0.1,0,0.2,0c0.2,0,0.4-0.1,0.6-0.2c0.3-0.2,0.6-0.5,0.8-0.8c3.6,6,3.9,11.5,4.1,15.3    c0.1,2.7,0.2,4.7,1.5,5.5c0.7,0.4,1.6,0.5,3,0.1C85.7,58.5,82.4,59.6,74,55.2z M87.7,55.9c-1.6,0.6-2.7,0.7-3.2,0.3    c-0.8-0.5-0.9-2.3-1-4.7c-0.2-4-0.5-9.9-4.5-16.3c0.1-0.3,0.2-0.5,0.2-0.8c0.1-1.4-0.8-2.3-0.9-2.4c-0.2-0.2-0.4-0.3-0.6-0.3    l-3.2-0.5c0.1-0.5,0.4-0.8,0.8-1.1c1-0.6,2.9,0.5,5,3C85.1,38.9,89.8,50.8,87.7,55.9z"/>
	</g>
</g>
<text x="0.0" y="117.5" font-size="5.0" font-weight="bold" font-family="Helvetica Neue, Helvetica, Arial-Unicode, Arial, Sans-serif" fill="#000000">Created by Sven Gabriel</text><text x="0.0" y="122.5" font-size="5.0" font-weight="bold" font-family="Helvetica Neue, Helvetica, Arial-Unicode, Arial, Sans-serif" fill="#000000">from the Noun Project</text></svg>